<svg width="598" height="900" viewBox="0 0 598 900" fill="none" xmlns="http://www.w3.org/2000/svg">
<path d="M576.91 363.393C589.915 355.836 598 341.864 598 326.837V132.461C598 117.435 589.915 103.463 576.91 95.9058L28.3158 -220.878C15.3105 -228.347 -0.858215 -228.347 -13.8635 -220.878L-416.412 11.5472L-335.656 58.208C-319.136 67.7862 -298.573 67.6983 -282.053 58.208L-21.069 -92.495C-3.6701 -102.6 17.9467 -102.513 35.4335 -92.495L143.782 -29.8411C255.381 34.658 370.847 101.442 487.015 168.226L490.618 170.247V292.479L487.015 294.5C330.337 382.725 174.537 471.565 10.8289 566.117L7.31406 568.226L5.64444 567.259L-339.698 367.698V695.027C-339.698 716.557 -328.099 736.679 -309.47 747.4L-232.317 792.04V553.727L7.40189 692.128L576.91 363.393Z" fill="#ECECEC"/>
<path d="M354.504 694.94V585.449L247.123 647.488V791.864L324.276 747.225C342.993 736.592 354.504 716.469 354.504 694.94Z" fill="#ECECEC"/>
<path d="M597.995 780.266V445.029L517.415 491.602C500.894 501.18 490.613 518.931 490.613 538.087V709.967C490.613 721.127 484.638 731.497 474.972 737.033L22.8625 998.017C13.1965 1003.55 1.24567 1003.55 -8.42041 998.017L-460.266 737.033C-469.932 731.497 -475.907 721.127 -475.907 709.967V249.423C-475.907 238.087 -470.02 227.981 -460.266 222.358C-450.424 216.734 -438.737 216.734 -428.983 222.358L7.22107 474.291L327.696 289.317C344.216 279.739 354.497 261.989 354.497 242.832V149.598L7.22107 350.126L3.61823 348.105L-489.264 63.6581C-491.812 62.1642 -494.8 61.3735 -497.788 61.3735C-500.776 61.3735 -503.763 62.1642 -506.312 63.6581L-574.853 103.289C-580.125 106.365 -583.377 111.989 -583.377 118.052V780.442C-583.377 786.505 -580.125 792.129 -574.853 795.205L-1.39062 1126.31C3.88177 1129.3 10.3844 1129.3 15.6569 1126.31L589.383 795.293C594.743 792.042 597.995 786.33 597.995 780.266Z" fill="#ECECEC"/>
</svg>
