<svg width="16" height="15" viewBox="0 0 16 15" fill="none" xmlns="http://www.w3.org/2000/svg">
<path fill-rule="evenodd" clip-rule="evenodd" d="M8.21452 2C11.2757 2 13.75 4.46643 13.75 7.5C13.75 10.5336 11.2757 13 8.21452 13C6.37055 13 4.73831 12.1051 3.73161 10.7273L3.28915 10.1217L2.078 11.0066L2.52046 11.6122C3.79872 13.3617 5.87368 14.5 8.21452 14.5C12.0961 14.5 15.25 11.37 15.25 7.5C15.25 3.63001 12.0961 0.5 8.21452 0.5C5.31835 0.5 2.82851 2.24164 1.75 4.73347V3.25V2.5H0.25V3.25V6.75C0.25 7.16421 0.585786 7.5 1 7.5H4H4.75V6H4H2.88724C3.54365 3.69393 5.67843 2 8.21452 2ZM9 4.75V4H7.5V4.75V7.3662C7.5 7.70056 7.6671 8.01279 7.9453 8.19825L9.33397 9.12404L9.95801 9.5401L10.7901 8.29199L10.166 7.87596L9 7.09861V4.75Z" fill="#666666"/>
</svg>
