<svg width="17" height="16" viewBox="0 0 17 16" fill="none" xmlns="http://www.w3.org/2000/svg">
<path fill-rule="evenodd" clip-rule="evenodd" d="M4.75 0C3.50736 0 2.5 1.00736 2.5 2.25V11V11.25V11.5C2.5 12.5252 3.11705 13.4062 4 13.792V11.5V11.25V11C4 10.4477 4.44772 10 5 10H13V11.2305V12.5H11V14H13H14.5V12.5V11.2305V10V8.5V0.75V0H13.75H4.75ZM13 8.5V1.5H4.75C4.33579 1.5 4 1.83579 4 2.25V8.70802C4.30623 8.57422 4.64445 8.5 5 8.5H13ZM6 11.5C5.72386 11.5 5.5 11.7239 5.5 12V16L7.5 14.75L9.5 16V12C9.5 11.7239 9.27614 11.5 9 11.5H6Z" fill="#666666"/>
</svg>
