<svg width="17" height="17" viewBox="0 0 17 17" fill="none" xmlns="http://www.w3.org/2000/svg">
<g clip-path="url(#clip0_1_60)">
<path fill-rule="evenodd" clip-rule="evenodd" d="M13.834 5.9375C13.7883 6.81457 13.6464 7.68784 13.4084 8.54121C14.3399 7.98938 15.0121 7.04588 15.198 5.9375H13.834ZM11.9353 9.03749C11.7925 9.05401 11.6472 9.0625 11.4999 9.0625C11.3526 9.0625 11.2073 9.05401 11.0644 9.03749C10.6944 8.03402 10.4788 6.98918 10.4177 5.9375H12.5821C12.5209 6.98918 12.3054 8.03402 11.9353 9.03749ZM13.834 4.6875C13.7883 3.81043 13.6464 2.93716 13.4084 2.08379C14.3399 2.63562 15.0121 3.57913 15.198 4.6875H13.834ZM12.5821 4.6875C12.5209 3.63582 12.3054 2.59098 11.9353 1.58751C11.7925 1.57099 11.6472 1.5625 11.4999 1.5625C11.3526 1.5625 11.2073 1.57099 11.0644 1.58751C10.6944 2.59098 10.4788 3.63582 10.4177 4.6875H12.5821ZM9.16579 4.6875C9.21146 3.81043 9.35333 2.93716 9.59138 2.08379C8.65983 2.63562 7.98767 3.57913 7.80172 4.6875H9.16579ZM9.59138 8.54121C9.35332 7.68783 9.21146 6.81457 9.16579 5.9375H7.80172C7.98767 7.04587 8.65983 7.98938 9.59138 8.54121ZM11.4999 10.3125C14.2613 10.3125 16.4999 8.07392 16.4999 5.3125C16.4999 2.55108 14.2613 0.3125 11.4999 0.3125C8.73845 0.3125 6.49987 2.55108 6.49987 5.3125C6.49987 8.07392 8.73845 10.3125 11.4999 10.3125ZM2.74987 9.8125H1.99987V11.3125H2.74987H4.43921L1.21954 14.5322L0.689209 15.0625L1.74987 16.1232L2.2802 15.5928L5.49987 12.3732V14.0625V14.8125H6.99987V14.0625V10.8125C6.99987 10.2602 6.55216 9.8125 5.99987 9.8125H2.74987Z" fill="#666666"/>
</g>
<defs>
<clipPath id="clip0_1_60">
<rect width="16" height="16" fill="white" transform="translate(0.5 0.3125)"/>
</clipPath>
</defs>
</svg>
