<svg width="99" height="20" viewBox="0 0 99 20" fill="none" xmlns="http://www.w3.org/2000/svg">
<path d="M19.6635 9.84846C19.6635 6.68605 21.281 3.89672 23.7438 2.24217H7.71764C3.45515 2.24217 0 5.65354 0 9.86116C0 14.0688 3.45515 17.4794 7.71764 17.4794H23.7802C21.2974 15.8277 19.6635 13.0264 19.6635 9.84846Z" fill="url(#paint0_linear_1_2238)"/>
<path d="M32.4981 17.6628C32.4731 17.667 32.4495 17.6705 32.4252 17.6748C32.4231 17.6303 32.4402 17.6176 32.4981 17.6628Z" fill="#DADADA"/>
<path d="M32.4252 17.6755C32.4495 17.6712 32.4738 17.6677 32.4981 17.6635C32.4402 17.6183 32.4231 17.631 32.4252 17.6755Z" fill="url(#paint1_linear_1_2238)"/>
<path d="M37.215 6.28191C36.7456 5.18733 36.0754 4.2049 35.2216 3.36211C34.3678 2.51931 33.3726 1.85707 32.2637 1.39441C31.1127 0.914127 29.8931 0.670811 28.6378 0.670811C27.3825 0.670811 26.1629 0.914833 25.0126 1.39441C23.9038 1.85777 22.9085 2.51931 22.0548 3.36211C21.201 4.2049 20.5301 5.18733 20.0614 6.28191C19.5749 7.41809 19.3284 8.62127 19.3284 9.86043C19.3284 11.0996 19.5756 12.3035 20.0614 13.4389C20.5308 14.5335 21.201 15.516 22.0548 16.3587C22.9085 17.2015 23.9038 17.8638 25.0126 18.3264C26.1629 18.8067 27.3825 19.05 28.6385 19.05C29.8946 19.05 31.1134 18.806 32.2637 18.3264C33.3726 17.8631 34.3678 17.2015 35.2216 16.3587C36.0754 15.516 36.7463 14.5335 37.215 13.4389C37.7015 12.3035 37.948 11.0996 37.948 9.86043C37.948 8.62127 37.7008 7.41738 37.215 6.28191ZM32.4252 17.6748C32.4231 17.6303 32.4402 17.6176 32.4981 17.6628C32.4731 17.667 32.4495 17.6705 32.4252 17.6748ZM28.6371 15.0723C25.7207 15.0723 23.3565 12.7386 23.3565 9.85972C23.3565 6.98082 25.7207 4.6471 28.6371 4.6471C31.5536 4.6471 33.9177 6.98082 33.9177 9.85972C33.9177 12.7386 31.5536 15.0723 28.6371 15.0723Z" fill="black"/>
<path d="M44.9989 7.62727H47.0714V15.4697C47.0714 16.0471 46.9579 16.5141 46.7309 16.8709C46.5039 17.2277 46.1779 17.4887 45.753 17.6542C45.3314 17.8196 44.827 17.9023 44.24 17.9023C44.1686 17.9023 44.1005 17.9007 44.0357 17.8974C43.9675 17.8974 43.8962 17.8958 43.8216 17.8925V16.2725C43.8767 16.2757 43.9254 16.2773 43.9675 16.2773C44.0065 16.2806 44.0486 16.2822 44.094 16.2822C44.4281 16.2822 44.6616 16.2109 44.7946 16.0681C44.9308 15.9287 44.9989 15.7179 44.9989 15.4357V7.62727ZM46.0303 6.66399C45.7254 6.66399 45.4627 6.56183 45.2422 6.35749C45.0216 6.14992 44.9114 5.9018 44.9114 5.61314C44.9114 5.32772 45.0216 5.08285 45.2422 4.87852C45.4627 4.67094 45.7254 4.56715 46.0303 4.56715C46.3417 4.56715 46.606 4.67094 46.8233 4.87852C47.0439 5.08285 47.1542 5.32772 47.1542 5.61314C47.1542 5.9018 47.0439 6.14992 46.8233 6.35749C46.606 6.56183 46.3417 6.66399 46.0303 6.66399ZM54.9492 9.75817L53.0518 9.87493C53.0194 9.71276 52.9497 9.56681 52.8426 9.43707C52.7356 9.3041 52.5945 9.19869 52.4194 9.12085C52.2475 9.03976 52.0415 8.99922 51.8015 8.99922C51.4804 8.99922 51.2096 9.06733 50.989 9.20355C50.7685 9.33653 50.6582 9.51491 50.6582 9.73871C50.6582 9.91709 50.7296 10.0679 50.8723 10.1912C51.015 10.3144 51.2599 10.4133 51.6069 10.4879L52.9594 10.7604C53.6859 10.9096 54.2275 11.1496 54.5843 11.4804C54.9411 11.8112 55.1195 12.2458 55.1195 12.7842C55.1195 13.274 54.9751 13.7037 54.6865 14.0735C54.4011 14.4432 54.0086 14.7319 53.5091 14.9395C53.0129 15.1438 52.4404 15.246 51.7918 15.246C50.8025 15.246 50.0144 15.04 49.4274 14.6281C48.8435 14.2129 48.5014 13.6486 48.4008 12.935L50.4393 12.828C50.5009 13.1297 50.6501 13.3599 50.8869 13.5189C51.1236 13.6745 51.4269 13.7524 51.7966 13.7524C52.1599 13.7524 52.4518 13.6826 52.6723 13.5432C52.8961 13.4005 53.0097 13.2172 53.0129 12.9934C53.0097 12.8053 52.9302 12.6513 52.7745 12.5313C52.6188 12.408 52.3788 12.3139 52.0545 12.2491L50.7604 11.9912C50.0306 11.8453 49.4874 11.5923 49.1306 11.2323C48.7771 10.8723 48.6003 10.4133 48.6003 9.85547C48.6003 9.37545 48.73 8.96192 48.9895 8.61488C49.2522 8.26784 49.6203 8.00026 50.0939 7.81215C50.5706 7.62403 51.1285 7.52997 51.7674 7.52997C52.7113 7.52997 53.454 7.72944 53.9956 8.12837C54.5405 8.52731 54.8584 9.07057 54.9492 9.75817ZM59.8009 15.246C59.0452 15.246 58.3916 15.0854 57.8403 14.7643C57.2921 14.44 56.8689 13.9891 56.5705 13.4118C56.2721 12.8313 56.1229 12.1583 56.1229 11.3928C56.1229 10.6209 56.2721 9.94628 56.5705 9.36896C56.8689 8.7884 57.2921 8.33757 57.8403 8.01648C58.3916 7.69214 59.0452 7.52997 59.8009 7.52997C60.5566 7.52997 61.2085 7.69214 61.7566 8.01648C62.308 8.33757 62.7329 8.7884 63.0313 9.36896C63.3297 9.94628 63.4789 10.6209 63.4789 11.3928C63.4789 12.1583 63.3297 12.8313 63.0313 13.4118C62.7329 13.9891 62.308 14.44 61.7566 14.7643C61.2085 15.0854 60.5566 15.246 59.8009 15.246ZM59.8106 13.6405C60.1544 13.6405 60.4414 13.5432 60.6717 13.3486C60.902 13.1507 61.0755 12.8815 61.1923 12.541C61.3123 12.2004 61.3723 11.8128 61.3723 11.3782C61.3723 10.9436 61.3123 10.556 61.1923 10.2155C61.0755 9.87493 60.902 9.60573 60.6717 9.40788C60.4414 9.21004 60.1544 9.11112 59.8106 9.11112C59.4636 9.11112 59.1717 9.21004 58.9349 9.40788C58.7014 9.60573 58.5246 9.87493 58.4046 10.2155C58.2878 10.556 58.2295 10.9436 58.2295 11.3782C58.2295 11.8128 58.2878 12.2004 58.4046 12.541C58.5246 12.8815 58.7014 13.1507 58.9349 13.3486C59.1717 13.5432 59.4636 13.6405 59.8106 13.6405ZM66.899 10.7798V15.1H64.8265V7.62727H66.8017V8.9457H66.8893C67.0547 8.51109 67.332 8.16729 67.7212 7.91431C68.1104 7.65809 68.5823 7.52997 69.1369 7.52997C69.6559 7.52997 70.1083 7.64349 70.4943 7.87053C70.8802 8.09756 71.1802 8.4219 71.3943 8.84354C71.6084 9.26193 71.7154 9.76141 71.7154 10.342V15.1H69.6429V10.7117C69.6461 10.2544 69.5294 9.89763 69.2926 9.64141C69.0558 9.38194 68.7299 9.2522 68.3147 9.2522C68.0358 9.2522 67.7893 9.3122 67.5752 9.43221C67.3644 9.55221 67.199 9.72736 67.079 9.95764C66.9622 10.1847 66.9022 10.4587 66.899 10.7798ZM76.7252 15.246C75.9695 15.246 75.3159 15.0854 74.7646 14.7643C74.2164 14.44 73.7932 13.9891 73.4948 13.4118C73.1964 12.8313 73.0472 12.1583 73.0472 11.3928C73.0472 10.6209 73.1964 9.94628 73.4948 9.36896C73.7932 8.7884 74.2164 8.33757 74.7646 8.01648C75.3159 7.69214 75.9695 7.52997 76.7252 7.52997C77.4809 7.52997 78.1328 7.69214 78.6809 8.01648C79.2323 8.33757 79.6572 8.7884 79.9556 9.36896C80.254 9.94628 80.4032 10.6209 80.4032 11.3928C80.4032 12.1583 80.254 12.8313 79.9556 13.4118C79.6572 13.9891 79.2323 14.44 78.6809 14.7643C78.1328 15.0854 77.4809 15.246 76.7252 15.246ZM76.7349 13.6405C77.0787 13.6405 77.3658 13.5432 77.596 13.3486C77.8263 13.1507 77.9998 12.8815 78.1166 12.541C78.2366 12.2004 78.2966 11.8128 78.2966 11.3782C78.2966 10.9436 78.2366 10.556 78.1166 10.2155C77.9998 9.87493 77.8263 9.60573 77.596 9.40788C77.3658 9.21004 77.0787 9.11112 76.7349 9.11112C76.3879 9.11112 76.096 9.21004 75.8592 9.40788C75.6257 9.60573 75.4489 9.87493 75.3289 10.2155C75.2122 10.556 75.1538 10.9436 75.1538 11.3782C75.1538 11.8128 75.2122 12.2004 75.3289 12.541C75.4489 12.8815 75.6257 13.1507 75.8592 13.3486C76.096 13.5432 76.3879 13.6405 76.7349 13.6405ZM83.8233 10.7798V15.1H81.7508V7.62727H83.726V8.9457H83.8136C83.979 8.51109 84.2563 8.16729 84.6455 7.91431C85.0347 7.65809 85.5066 7.52997 86.0612 7.52997C86.5802 7.52997 87.0326 7.64349 87.4186 7.87053C87.8045 8.09756 88.1046 8.4219 88.3186 8.84354C88.5327 9.26193 88.6397 9.76141 88.6397 10.342V15.1H86.5672V10.7117C86.5704 10.2544 86.4537 9.89763 86.2169 9.64141C85.9801 9.38194 85.6542 9.2522 85.239 9.2522C84.9601 9.2522 84.7136 9.3122 84.4995 9.43221C84.2887 9.55221 84.1233 9.72736 84.0033 9.95764C83.8865 10.1847 83.8265 10.4587 83.8233 10.7798ZM93.6787 15.246C92.91 15.246 92.2484 15.0903 91.6937 14.7789C91.1424 14.4643 90.7175 14.02 90.4191 13.4459C90.1207 12.8686 89.9715 12.1858 89.9715 11.3977C89.9715 10.629 90.1207 9.95439 90.4191 9.37383C90.7175 8.79327 91.1375 8.34081 91.6792 8.01648C92.224 7.69214 92.863 7.52997 93.596 7.52997C94.089 7.52997 94.5479 7.60943 94.9728 7.76836C95.4009 7.92404 95.7739 8.15919 96.0918 8.47379C96.4129 8.7884 96.6626 9.18409 96.841 9.66087C97.0194 10.1344 97.1086 10.689 97.1086 11.3247V11.8939H90.7986V10.6096H95.1577C95.1577 10.3112 95.0928 10.0468 94.9631 9.81655C94.8333 9.58627 94.6533 9.40626 94.423 9.27653C94.196 9.14355 93.9317 9.07706 93.63 9.07706C93.3154 9.07706 93.0365 9.15004 92.7932 9.29599C92.5532 9.4387 92.3651 9.63168 92.2289 9.87493C92.0927 10.1149 92.0229 10.3825 92.0197 10.6777V11.8988C92.0197 12.2685 92.0878 12.588 92.224 12.8572C92.3635 13.1264 92.5597 13.334 92.8127 13.4799C93.0657 13.6259 93.3657 13.6989 93.7127 13.6989C93.943 13.6989 94.1538 13.6664 94.3452 13.6016C94.5366 13.5367 94.7004 13.4394 94.8366 13.3097C94.9728 13.1799 95.0766 13.021 95.1479 12.8329L97.0648 12.9594C96.9675 13.4199 96.768 13.8221 96.4664 14.1659C96.168 14.5065 95.782 14.7724 95.3085 14.9638C94.8382 15.1519 94.2949 15.246 93.6787 15.246Z" fill="#323232"/>
<defs>
<linearGradient id="paint0_linear_1_2238" x1="0" y1="9.8608" x2="23.7802" y2="9.8608" gradientUnits="userSpaceOnUse">
<stop stop-color="#E12525"/>
<stop offset="1" stop-color="#7B1414"/>
</linearGradient>
<linearGradient id="paint1_linear_1_2238" x1="32.4381" y1="17.6332" x2="32.4689" y2="17.6822" gradientUnits="userSpaceOnUse">
<stop offset="0.4" stop-color="#191919"/>
<stop offset="0.56" stop-color="#202020"/>
<stop offset="0.78" stop-color="#323232"/>
<stop offset="0.88" stop-color="#3E3E3E"/>
</linearGradient>
</defs>
</svg>
