<svg width="227" height="49" viewBox="0 0 227 49" fill="none" xmlns="http://www.w3.org/2000/svg">
<path d="M45.4997 21.6316C45.4997 14.314 49.2426 7.85976 54.9412 4.03125H17.858C7.99494 4.03125 0 11.9249 0 21.661C0 31.3971 7.99494 39.2891 17.858 39.2891H55.0255C49.2806 35.4671 45.4997 28.9851 45.4997 21.6316Z" fill="white"/>
<path d="M48.4741 6.53125C45.0579 10.6333 42.9997 15.8918 42.9997 21.6316C42.9997 27.3981 45.0776 32.6787 48.5221 36.7891H17.858C9.34501 36.7891 2.5 29.9859 2.5 21.661C2.5 13.3357 9.34531 6.53125 17.858 6.53125H48.4741Z" stroke="black" stroke-opacity="0.9" stroke-width="5"/>
<path d="M75.1988 39.7134C75.141 39.7232 75.0864 39.7313 75.0302 39.7411C75.0252 39.6383 75.0649 39.6089 75.1988 39.7134Z" fill="#DADADA"/>
<path d="M75.0302 39.7427C75.0864 39.7329 75.1426 39.7248 75.1988 39.715C75.0649 39.6105 75.0252 39.6399 75.0302 39.7427Z" fill="white"/>
<path d="M74.2714 2.9925L74.2714 2.99251C76.7189 4.0137 78.9141 5.47439 80.7983 7.33438C82.6821 9.1939 84.159 11.3592 85.1939 13.7723C86.2649 16.2754 86.8095 18.9273 86.8095 21.6593C86.8095 24.3917 86.2664 27.0434 85.1941 29.5459L85.194 29.5461C84.1609 31.9588 82.6825 34.1243 80.7983 35.9842C79.4597 37.3056 77.964 38.4248 76.3321 39.329L75.8138 38.9248C75.7524 38.877 75.6554 38.8069 75.5328 38.7505C75.4359 38.706 75.1512 38.5882 74.7979 38.6851C74.3597 38.8053 74.1574 39.1476 74.0854 39.3668C74.0236 39.5552 74.028 39.7204 74.0313 39.7893L74.0614 40.4124C71.584 41.414 68.9663 41.9234 66.2681 41.9234C63.4929 41.9234 60.802 41.3862 58.2634 40.3262L58.2631 40.3261C55.8156 39.3049 53.6205 37.8442 51.7363 35.9842C49.8524 34.1246 48.3755 31.9592 47.3405 29.546C46.2696 27.043 45.7251 24.3912 45.7251 21.6593C45.7251 18.927 46.2681 16.2769 47.3406 13.7726L47.3406 13.7725C48.3737 11.3598 49.852 9.19435 51.7363 7.33438C53.6202 5.47474 55.8152 4.01549 58.2632 2.99247C60.8024 1.93388 63.4935 1.39526 66.2665 1.39526C69.0399 1.39526 71.731 1.93243 74.2714 2.9925ZM75.6045 39.7134C75.4803 39.7758 75.3555 39.8371 75.2299 39.8971C75.1769 39.9225 75.1237 39.9476 75.0705 39.9725C75.032 39.9905 74.9934 40.0084 74.9548 40.0262L75.057 39.8951L75.1829 39.7337L75.2021 39.7328L75.6045 39.7134ZM53.0459 21.6577C53.0459 28.8837 58.9764 34.7193 66.2648 34.7193C73.5533 34.7193 79.4837 28.8837 79.4837 21.6577C79.4837 14.4317 73.5533 8.59608 66.2648 8.59608C58.9764 8.59608 53.0459 14.4317 53.0459 21.6577Z" fill="black" fill-opacity="0.9" stroke="white" stroke-width="2"/>
<path d="M100.434 33.8125C100.101 33.625 99.9341 33.375 99.9341 33.0625C99.9341 32.875 99.9445 32.7708 99.9653 32.75C100.278 32.5833 100.476 32.4583 100.559 32.375C100.663 32.2917 100.851 32.1042 101.122 31.8125C101.767 31.1458 102.267 30.0938 102.622 28.6562C102.976 27.2396 103.153 25.6458 103.153 23.875V18.3438C103.153 17.1771 102.965 16.3958 102.59 16C102.424 15.7917 102.205 15.6458 101.934 15.5625C101.663 15.4792 101.424 15.4271 101.215 15.4062C101.007 15.3646 100.903 15.3229 100.903 15.2812C100.903 14.6771 100.944 14.375 101.028 14.375C101.215 14.375 101.559 14.3333 102.059 14.25C102.559 14.1667 103.101 14.0729 103.684 13.9688C104.267 13.8438 104.788 13.7292 105.247 13.625C105.726 13.5208 106.038 13.4479 106.184 13.4062L107.09 13.1562C107.215 13.1562 107.33 13.2292 107.434 13.375C107.538 13.5 107.59 13.6042 107.59 13.6875C107.549 14.2292 107.497 14.6562 107.434 14.9688C107.372 15.2812 107.319 15.5729 107.278 15.8438C107.236 16.0938 107.215 16.4167 107.215 16.8125V23.25C107.215 26.3125 106.715 28.625 105.715 30.1875C105.465 30.5833 105.101 30.9896 104.622 31.4062C104.142 31.8438 103.622 32.2396 103.059 32.5938C102.517 32.9688 102.007 33.2604 101.528 33.4688C101.049 33.6979 100.684 33.8125 100.434 33.8125ZM105.184 10.0625C104.538 10.0625 103.986 9.84375 103.528 9.40625C103.09 8.94792 102.872 8.39583 102.872 7.75C102.872 7.10417 103.09 6.5625 103.528 6.125C103.986 5.66667 104.538 5.4375 105.184 5.4375C105.83 5.4375 106.372 5.66667 106.809 6.125C107.267 6.5625 107.497 7.10417 107.497 7.75C107.497 8.39583 107.267 8.94792 106.809 9.40625C106.372 9.84375 105.83 10.0625 105.184 10.0625ZM115.497 27.3125C115.017 27.3125 114.486 27.2604 113.903 27.1562C113.319 27.0521 112.778 26.9062 112.278 26.7188C111.778 26.5312 111.392 26.3333 111.122 26.125C110.872 24.6875 110.747 23.4167 110.747 22.3125C110.851 22.25 111.007 22.2188 111.215 22.2188C111.882 22.2188 112.226 22.3125 112.247 22.5C112.601 24.5625 113.726 25.5938 115.622 25.5938C116.122 25.5938 116.538 25.4792 116.872 25.25C117.205 25.0208 117.372 24.6771 117.372 24.2188C117.372 23.7812 117.194 23.4062 116.84 23.0938C116.486 22.7812 116.069 22.5 115.59 22.25C115.111 22 114.674 21.7708 114.278 21.5625C113.069 20.9792 112.174 20.3438 111.59 19.6562C111.007 18.9479 110.715 18.0833 110.715 17.0625C110.715 16.1042 110.965 15.3333 111.465 14.75C111.965 14.1458 112.632 13.6979 113.465 13.4062C114.299 13.1146 115.194 12.9688 116.153 12.9688C117.965 12.9688 119.319 13.1771 120.215 13.5938C120.424 14.5104 120.528 15.8021 120.528 17.4688C120.528 17.6562 120.392 17.75 120.122 17.75C119.476 17.75 119.132 17.6667 119.09 17.5C118.903 16.625 118.58 15.9375 118.122 15.4375C117.684 14.9375 116.976 14.6875 115.997 14.6875C115.538 14.6875 115.163 14.8021 114.872 15.0312C114.58 15.2396 114.434 15.5521 114.434 15.9688C114.434 16.4479 114.642 16.8646 115.059 17.2188C115.476 17.5521 116.09 17.9167 116.903 18.3125C117.59 18.625 118.257 18.9896 118.903 19.4062C119.549 19.8021 120.069 20.3021 120.465 20.9062C120.882 21.4896 121.09 22.2292 121.09 23.125C121.09 24.5 120.559 25.5417 119.497 26.25C118.455 26.9583 117.122 27.3125 115.497 27.3125ZM130.184 27.2188C128.83 27.2188 127.59 26.9062 126.465 26.2812C125.361 25.6354 124.476 24.7812 123.809 23.7188C123.163 22.6354 122.84 21.4375 122.84 20.125C122.84 18.7917 123.163 17.5938 123.809 16.5312C124.476 15.4688 125.361 14.625 126.465 14C127.59 13.3542 128.83 13.0312 130.184 13.0312C131.559 13.0312 132.799 13.3542 133.903 14C135.007 14.625 135.882 15.4688 136.528 16.5312C137.194 17.5938 137.528 18.7917 137.528 20.125C137.528 21.4375 137.205 22.6354 136.559 23.7188C135.913 24.7812 135.028 25.6354 133.903 26.2812C132.799 26.9062 131.559 27.2188 130.184 27.2188ZM130.497 25.5C131.08 25.5 131.559 25.3021 131.934 24.9062C132.309 24.5104 132.58 23.9896 132.747 23.3438C132.934 22.6771 133.028 21.9688 133.028 21.2188C133.028 16.9062 131.934 14.75 129.747 14.75C129.163 14.75 128.684 14.9583 128.309 15.375C127.955 15.7917 127.694 16.3333 127.528 17C127.361 17.6667 127.278 18.3854 127.278 19.1562C127.278 23.3854 128.351 25.5 130.497 25.5ZM139.122 27.125C139.038 27.0417 138.997 26.8229 138.997 26.4688C138.997 26.1354 139.038 25.9688 139.122 25.9688C139.288 25.9688 139.517 25.9271 139.809 25.8438C140.122 25.7396 140.413 25.625 140.684 25.5C140.976 25.375 141.132 25.2708 141.153 25.1875C141.299 24.6042 141.372 23.8125 141.372 22.8125V18.5312C141.372 17.3646 141.184 16.5833 140.809 16.1875C140.642 15.9792 140.413 15.8333 140.122 15.75C139.851 15.6667 139.611 15.6146 139.403 15.5938C139.194 15.5521 139.09 15.5104 139.09 15.4688C139.09 14.7396 139.142 14.375 139.247 14.375C139.788 14.375 140.559 14.2604 141.559 14.0312C142.559 13.7812 143.694 13.5208 144.965 13.25L145.122 13.2188C145.142 13.1979 145.184 13.1875 145.247 13.1875L145.309 13.1562C145.413 13.1562 145.517 13.2292 145.622 13.375C145.747 13.5 145.799 13.6042 145.778 13.6875L145.653 14.6562C145.653 14.7604 145.663 14.8229 145.684 14.8438C145.726 14.8438 145.799 14.7917 145.903 14.6875C147.049 13.6042 148.497 13.0625 150.247 13.0625C151.455 13.0625 152.434 13.5729 153.184 14.5938C153.955 15.6146 154.34 17.1667 154.34 19.25V22.3438C154.34 23.7188 154.413 24.6667 154.559 25.1875C154.601 25.2708 154.757 25.375 155.028 25.5C155.299 25.625 155.58 25.7396 155.872 25.8438C156.184 25.9271 156.403 25.9688 156.528 25.9688C156.569 25.9688 156.601 26.0521 156.622 26.2188C156.642 26.3854 156.653 26.5625 156.653 26.75C156.653 26.9375 156.632 27.0625 156.59 27.125C156.465 27.125 156.226 27.1042 155.872 27.0625C155.517 27.0417 155.101 27.0208 154.622 27C154.163 26.9583 153.726 26.9271 153.309 26.9062C152.892 26.8854 152.559 26.875 152.309 26.875C151.976 26.875 151.507 26.8958 150.903 26.9375C150.319 26.9792 149.757 27.0104 149.215 27.0312C148.674 27.0729 148.319 27.1042 148.153 27.125C148.069 27.0417 148.028 26.8229 148.028 26.4688C148.028 26.1354 148.069 25.9688 148.153 25.9688C148.319 25.9688 148.538 25.9271 148.809 25.8438C149.101 25.7396 149.372 25.625 149.622 25.5C149.892 25.375 150.038 25.2708 150.059 25.1875C150.205 24.6042 150.278 23.8125 150.278 22.8125V20C150.278 18.4583 150.059 17.3646 149.622 16.7188C149.205 16.0521 148.528 15.7188 147.59 15.7188C146.944 15.7188 146.424 15.8438 146.028 16.0938C145.632 16.3229 145.434 16.6562 145.434 17.0938V22.3438C145.434 23.7188 145.507 24.6667 145.653 25.1875C145.694 25.2708 145.84 25.375 146.09 25.5C146.34 25.625 146.611 25.7396 146.903 25.8438C147.194 25.9271 147.392 25.9688 147.497 25.9688C147.538 25.9688 147.569 26.0521 147.59 26.2188C147.611 26.3854 147.622 26.5625 147.622 26.75C147.622 26.9375 147.601 27.0625 147.559 27.125C147.392 27.1042 147.038 27.0729 146.497 27.0312C145.955 27.0104 145.382 26.9792 144.778 26.9375C144.194 26.8958 143.736 26.875 143.403 26.875C143.153 26.875 142.809 26.8854 142.372 26.9062C141.955 26.9271 141.517 26.9583 141.059 27C140.601 27.0208 140.194 27.0417 139.84 27.0625C139.486 27.1042 139.247 27.125 139.122 27.125ZM165.434 27.2188C164.08 27.2188 162.84 26.9062 161.715 26.2812C160.611 25.6354 159.726 24.7812 159.059 23.7188C158.413 22.6354 158.09 21.4375 158.09 20.125C158.09 18.7917 158.413 17.5938 159.059 16.5312C159.726 15.4688 160.611 14.625 161.715 14C162.84 13.3542 164.08 13.0312 165.434 13.0312C166.809 13.0312 168.049 13.3542 169.153 14C170.257 14.625 171.132 15.4688 171.778 16.5312C172.444 17.5938 172.778 18.7917 172.778 20.125C172.778 21.4375 172.455 22.6354 171.809 23.7188C171.163 24.7812 170.278 25.6354 169.153 26.2812C168.049 26.9062 166.809 27.2188 165.434 27.2188ZM165.747 25.5C166.33 25.5 166.809 25.3021 167.184 24.9062C167.559 24.5104 167.83 23.9896 167.997 23.3438C168.184 22.6771 168.278 21.9688 168.278 21.2188C168.278 16.9062 167.184 14.75 164.997 14.75C164.413 14.75 163.934 14.9583 163.559 15.375C163.205 15.7917 162.944 16.3333 162.778 17C162.611 17.6667 162.528 18.3854 162.528 19.1562C162.528 23.3854 163.601 25.5 165.747 25.5ZM174.372 27.125C174.288 27.0417 174.247 26.8229 174.247 26.4688C174.247 26.1354 174.288 25.9688 174.372 25.9688C174.538 25.9688 174.767 25.9271 175.059 25.8438C175.372 25.7396 175.663 25.625 175.934 25.5C176.226 25.375 176.382 25.2708 176.403 25.1875C176.549 24.6042 176.622 23.8125 176.622 22.8125V18.5312C176.622 17.3646 176.434 16.5833 176.059 16.1875C175.892 15.9792 175.663 15.8333 175.372 15.75C175.101 15.6667 174.861 15.6146 174.653 15.5938C174.444 15.5521 174.34 15.5104 174.34 15.4688C174.34 14.7396 174.392 14.375 174.497 14.375C175.038 14.375 175.809 14.2604 176.809 14.0312C177.809 13.7812 178.944 13.5208 180.215 13.25L180.372 13.2188C180.392 13.1979 180.434 13.1875 180.497 13.1875L180.559 13.1562C180.663 13.1562 180.767 13.2292 180.872 13.375C180.997 13.5 181.049 13.6042 181.028 13.6875L180.903 14.6562C180.903 14.7604 180.913 14.8229 180.934 14.8438C180.976 14.8438 181.049 14.7917 181.153 14.6875C182.299 13.6042 183.747 13.0625 185.497 13.0625C186.705 13.0625 187.684 13.5729 188.434 14.5938C189.205 15.6146 189.59 17.1667 189.59 19.25V22.3438C189.59 23.7188 189.663 24.6667 189.809 25.1875C189.851 25.2708 190.007 25.375 190.278 25.5C190.549 25.625 190.83 25.7396 191.122 25.8438C191.434 25.9271 191.653 25.9688 191.778 25.9688C191.819 25.9688 191.851 26.0521 191.872 26.2188C191.892 26.3854 191.903 26.5625 191.903 26.75C191.903 26.9375 191.882 27.0625 191.84 27.125C191.715 27.125 191.476 27.1042 191.122 27.0625C190.767 27.0417 190.351 27.0208 189.872 27C189.413 26.9583 188.976 26.9271 188.559 26.9062C188.142 26.8854 187.809 26.875 187.559 26.875C187.226 26.875 186.757 26.8958 186.153 26.9375C185.569 26.9792 185.007 27.0104 184.465 27.0312C183.924 27.0729 183.569 27.1042 183.403 27.125C183.319 27.0417 183.278 26.8229 183.278 26.4688C183.278 26.1354 183.319 25.9688 183.403 25.9688C183.569 25.9688 183.788 25.9271 184.059 25.8438C184.351 25.7396 184.622 25.625 184.872 25.5C185.142 25.375 185.288 25.2708 185.309 25.1875C185.455 24.6042 185.528 23.8125 185.528 22.8125V20C185.528 18.4583 185.309 17.3646 184.872 16.7188C184.455 16.0521 183.778 15.7188 182.84 15.7188C182.194 15.7188 181.674 15.8438 181.278 16.0938C180.882 16.3229 180.684 16.6562 180.684 17.0938V22.3438C180.684 23.7188 180.757 24.6667 180.903 25.1875C180.944 25.2708 181.09 25.375 181.34 25.5C181.59 25.625 181.861 25.7396 182.153 25.8438C182.444 25.9271 182.642 25.9688 182.747 25.9688C182.788 25.9688 182.819 26.0521 182.84 26.2188C182.861 26.3854 182.872 26.5625 182.872 26.75C182.872 26.9375 182.851 27.0625 182.809 27.125C182.642 27.1042 182.288 27.0729 181.747 27.0312C181.205 27.0104 180.632 26.9792 180.028 26.9375C179.444 26.8958 178.986 26.875 178.653 26.875C178.403 26.875 178.059 26.8854 177.622 26.9062C177.205 26.9271 176.767 26.9583 176.309 27C175.851 27.0208 175.444 27.0417 175.09 27.0625C174.736 27.1042 174.497 27.125 174.372 27.125ZM200.028 27.2188C198.757 27.2188 197.58 26.8958 196.497 26.25C195.434 25.6042 194.58 24.7396 193.934 23.6562C193.309 22.5729 192.997 21.3854 192.997 20.0938C192.997 18.7604 193.278 17.5625 193.84 16.5C194.424 15.4375 195.226 14.5938 196.247 13.9688C197.267 13.3438 198.444 13.0312 199.778 13.0312C201.09 13.0312 202.205 13.3438 203.122 13.9688C204.059 14.5729 204.767 15.3333 205.247 16.25C205.747 17.1458 205.997 18.0521 205.997 18.9688C205.997 19.4479 205.892 19.7604 205.684 19.9062C205.497 20.0521 205.111 20.125 204.528 20.125H197.465C197.34 20.125 197.278 20.1979 197.278 20.3438C197.278 21.0938 197.413 21.8021 197.684 22.4688C197.976 23.1354 198.392 23.6771 198.934 24.0938C199.497 24.5104 200.174 24.7188 200.965 24.7188C201.674 24.7188 202.33 24.6146 202.934 24.4062C203.351 24.2812 203.674 24.1667 203.903 24.0625C204.132 23.9583 204.34 23.8438 204.528 23.7188C204.736 23.5729 204.976 23.3958 205.247 23.1875C205.434 23.2708 205.528 23.4688 205.528 23.7812C205.528 24.0521 205.486 24.2604 205.403 24.4062C205.278 24.7396 204.944 25.125 204.403 25.5625C203.882 26 203.236 26.3854 202.465 26.7188C201.715 27.0521 200.903 27.2188 200.028 27.2188ZM197.497 18.4062H201.465C201.757 18.4062 201.903 18.2083 201.903 17.8125C201.903 17.0208 201.684 16.3125 201.247 15.6875C200.83 15.0625 200.288 14.75 199.622 14.75C199.017 14.75 198.538 14.9688 198.184 15.4062C197.851 15.8229 197.611 16.2917 197.465 16.8125C197.34 17.3333 197.278 17.7604 197.278 18.0938C197.278 18.3021 197.351 18.4062 197.497 18.4062Z" fill="black" fill-opacity="0.9"/>
</svg>
