<svg width="37" height="42" viewBox="0 0 37 42" fill="none" xmlns="http://www.w3.org/2000/svg">
<path d="M35.3701 18.4296C35.7665 18.1992 36.013 17.7733 36.013 17.3152V11.3898C36.013 10.9317 35.7665 10.5058 35.3701 10.2754L18.6466 0.618525C18.2501 0.39083 17.7572 0.39083 17.3608 0.618525L5.08936 7.70384L7.55114 9.12626C8.05474 9.41824 8.68157 9.41557 9.18518 9.12626L17.1411 4.53219C17.6715 4.22413 18.3305 4.22681 18.8635 4.53219L22.1664 6.44215C25.5685 8.40835 29.0884 10.4442 32.6297 12.4801L32.7395 12.5417V16.2678L32.6297 16.3294C27.8534 19.0189 23.104 21.7271 18.1135 24.6095L18.0063 24.6738L17.9554 24.6443L7.42791 18.5609V28.5392C7.42791 29.1955 7.78151 29.809 8.3494 30.1358L10.7014 31.4966V24.2318L18.009 28.4508L35.3701 18.4296Z" fill="black" fill-opacity="0.9"/>
<path d="M28.5903 28.5366V25.1989L25.3169 27.0901V31.4913L27.6688 30.1305C28.2394 29.8063 28.5903 29.1929 28.5903 28.5366Z" fill="black" fill-opacity="0.9"/>
<path d="M36.0132 31.1376V20.9181L33.5568 22.3379C33.0532 22.6298 32.7398 23.171 32.7398 23.7549V28.9946C32.7398 29.3348 32.5576 29.6509 32.263 29.8196L18.4808 37.7756C18.1861 37.9443 17.8218 37.9443 17.5271 37.7756L3.75294 29.8196C3.45828 29.6509 3.27612 29.3348 3.27612 28.9946V14.9552C3.27612 14.6096 3.4556 14.3016 3.75294 14.1301C4.05296 13.9587 4.40924 13.9587 4.70658 14.1301L18.0039 21.8101L27.7734 16.1714C28.277 15.8794 28.5904 15.3383 28.5904 14.7543V11.9121L18.0039 18.0251L17.8941 17.9634L2.86895 9.2923C2.79127 9.24676 2.70019 9.22266 2.60911 9.22266C2.51804 9.22266 2.42696 9.24676 2.34927 9.2923L0.25984 10.5004C0.0991144 10.5942 0 10.7656 0 10.9505V31.1429C0 31.3278 0.0991144 31.4992 0.25984 31.593L17.7414 41.6865C17.9021 41.7776 18.1004 41.7776 18.2611 41.6865L35.7507 31.5957C35.9141 31.4965 36.0132 31.3224 36.0132 31.1376Z" fill="black" fill-opacity="0.9"/>
</svg>
