<svg width="159" height="21" viewBox="0 0 159 21" fill="none" xmlns="http://www.w3.org/2000/svg">
<path d="M10.4628 11.7482L1.67375 0.762582L1.63357 0.711685H0.390625V20.5908H1.9443C3.01848 20.5908 3.73907 19.8702 3.73907 18.796V8.07024L10.4628 16.7387L17.2132 8.01667V18.796C17.2132 19.8702 17.9338 20.5908 19.008 20.5908H20.5617V0.711685H19.3187L10.4628 11.7482Z" fill="white"/>
<path d="M37.6787 0.30986C31.8443 0.30986 27.4458 4.75392 27.4458 10.6499C27.4458 16.5458 31.8443 20.9899 37.6787 20.9899C43.5425 20.9899 47.9651 16.5431 47.9651 10.6499C47.9651 4.7566 43.5451 0.30986 37.6787 0.30986ZM37.6787 18.0727C33.8186 18.0727 30.7943 14.8127 30.7943 10.6526C30.7943 6.56209 33.8829 3.23239 37.6787 3.23239C41.5039 3.23239 44.6166 6.56209 44.6166 10.6526C44.6166 14.8127 41.5709 18.0727 37.6787 18.0727Z" fill="white"/>
<path d="M66.8376 10.1757C68.0885 9.62928 69.235 8.10238 69.235 5.93527C69.235 2.56539 67.1027 0.711685 63.2346 0.711685H54.8501V20.5908H63.5561C67.6144 20.5908 70.0387 18.4772 70.0387 14.9386C70.0387 12.3107 68.4636 10.6043 66.8376 10.1757ZM62.8864 9.14978H58.1985V3.55117H63.0739C64.7133 3.55117 65.8598 4.64143 65.8598 6.20314C65.8598 7.62824 65.0803 9.14978 62.8864 9.14978ZM58.1985 11.775H63.2078C64.8097 11.775 66.717 12.2866 66.717 14.7216C66.717 16.5324 65.4044 17.7486 63.4489 17.7486H58.1985V11.775Z" fill="white"/>
<path d="M78.8785 0.711685H77.1909V18.8201C77.1909 19.9264 77.8124 20.5881 78.8518 20.5881H80.5394V2.37252C80.5394 1.3787 79.8724 0.711685 78.8785 0.711685Z" fill="white"/>
<path d="M107.825 9.89984H97.2279V11.266C97.2279 12.3054 97.8333 12.9 98.8887 12.9H104.53C104.222 15.9565 101.452 18.1156 97.8734 18.0701C94.0401 17.995 91.0399 14.7457 91.0399 10.6767C91.0399 6.58353 94.1393 3.25651 97.9511 3.25651C99.6629 3.25651 101.243 3.87531 102.526 5.04593C103.322 5.72365 103.973 5.82277 104.769 5.38077L106.212 4.55571L106.121 4.43517C104.147 1.83141 101.168 0.336662 97.9511 0.336662C92.3097 0.336662 87.7183 4.97627 87.7183 10.6767C87.7183 16.4601 92.2132 20.9899 97.9511 20.9899C103.601 20.9899 107.688 17.17 107.889 11.7V11.6946C107.889 11.2821 107.889 10.591 107.836 10.0204L107.825 9.89984Z" fill="white"/>
<path d="M116.488 0.711685H114.8V18.8201C114.8 19.9264 115.422 20.5881 116.461 20.5881H118.149V2.37252C118.149 1.3787 117.482 0.711685 116.488 0.711685Z" fill="white"/>
<path d="M126.212 20.5907H127.9C128.909 20.5907 129.56 19.9398 129.56 18.9299V12.3937H136.713C137.752 12.3937 138.347 11.7991 138.347 10.7597V9.58105H129.56V3.55384H138.454C139.493 3.55384 140.088 2.96719 140.088 1.94659V0.714355H126.212V20.5907Z" fill="white"/>
<path d="M145.687 0.711685C144.677 0.711685 144.026 1.36263 144.026 2.37252V3.55117H149.812V20.5881H151.5C152.493 20.5881 153.16 19.9211 153.16 18.9273V3.55117H157.339C158.317 3.55117 159 2.86809 159 1.89035V0.711685H145.687Z" fill="white"/>
</svg>
