<svg width="37" height="42" viewBox="0 0 37 42" fill="none" xmlns="http://www.w3.org/2000/svg">
<path d="M35.3701 17.9818C35.7665 17.7515 36.013 17.3255 36.013 16.8675V10.9421C36.013 10.484 35.7665 10.0581 35.3701 9.8277L18.6466 0.170771C18.2501 -0.0569236 17.7572 -0.0569236 17.3608 0.170771L5.08936 7.25608L7.55114 8.6785C8.05474 8.97049 8.68157 8.96781 9.18518 8.6785L17.1411 4.08443C17.6715 3.77638 18.3305 3.77906 18.8635 4.08443L22.1664 5.99439C25.5685 7.9606 29.0884 9.99646 32.6297 12.0323L32.7395 12.0939V15.8201L32.6297 15.8817C27.8534 18.5712 23.104 21.2794 18.1135 24.1617L18.0063 24.226L17.9554 24.1966L7.42791 18.1131V28.0915C7.42791 28.7478 7.78151 29.3612 8.3494 29.688L10.7014 31.0488V23.784L18.009 28.0031L35.3701 17.9818Z" fill="white"/>
<path d="M28.5903 28.0888V24.7511L25.3169 26.6423V31.0435L27.6688 29.6827C28.2394 29.3585 28.5903 28.7451 28.5903 28.0888Z" fill="white"/>
<path d="M36.0132 30.6899V20.4704L33.5568 21.8901C33.0532 22.1821 32.7398 22.7232 32.7398 23.3072V28.5469C32.7398 28.8871 32.5576 29.2032 32.263 29.3719L18.4808 37.3278C18.1861 37.4966 17.8218 37.4966 17.5271 37.3278L3.75294 29.3719C3.45828 29.2032 3.27612 28.8871 3.27612 28.5469V14.5075C3.27612 14.1619 3.4556 13.8539 3.75294 13.6824C4.05296 13.511 4.40924 13.511 4.70658 13.6824L18.0039 21.3624L27.7734 15.7236C28.277 15.4317 28.5904 14.8905 28.5904 14.3066V11.4644L18.0039 17.5773L17.8941 17.5157L2.86895 8.84458C2.79127 8.79904 2.70019 8.77494 2.60911 8.77494C2.51804 8.77494 2.42696 8.79904 2.34927 8.84458L0.25984 10.0527C0.0991144 10.1465 0 10.3179 0 10.5027V30.6952C0 30.8801 0.0991144 31.0515 0.25984 31.1453L17.7414 41.2388C17.9021 41.3299 18.1004 41.3299 18.2611 41.2388L35.7507 31.1479C35.9141 31.0488 36.0132 30.8747 36.0132 30.6899Z" fill="white"/>
</svg>
