<svg width="159" height="22" viewBox="0 0 159 22" fill="none" xmlns="http://www.w3.org/2000/svg">
<path d="M10.4628 12.1959L1.67375 1.21032L1.63357 1.15942H0.390625V21.0385H1.9443C3.01848 21.0385 3.73907 20.3179 3.73907 19.2437V8.51798L10.4628 17.1864L17.2132 8.46441V19.2437C17.2132 20.3179 17.9338 21.0385 19.008 21.0385H20.5617V1.15942H19.3187L10.4628 12.1959Z" fill="black" fill-opacity="0.9"/>
<path d="M37.6787 0.757568C31.8443 0.757568 27.4458 5.20163 27.4458 11.0976C27.4458 16.9935 31.8443 21.4376 37.6787 21.4376C43.5425 21.4376 47.9651 16.9909 47.9651 11.0976C47.9651 5.20431 43.5451 0.757568 37.6787 0.757568ZM37.6787 18.5204C33.8186 18.5204 30.7943 15.2604 30.7943 11.1003C30.7943 7.0098 33.8829 3.6801 37.6787 3.6801C41.5039 3.6801 44.6166 7.0098 44.6166 11.1003C44.6166 15.2604 41.5709 18.5204 37.6787 18.5204Z" fill="black" fill-opacity="0.9"/>
<path d="M66.8376 10.6235C68.0885 10.077 69.235 8.55012 69.235 6.383C69.235 3.01313 67.1027 1.15942 63.2346 1.15942H54.8501V21.0385H63.5561C67.6144 21.0385 70.0387 18.925 70.0387 15.3863C70.0387 12.7585 68.4636 11.0521 66.8376 10.6235ZM62.8864 9.59752H58.1985V3.99891H63.0739C64.7133 3.99891 65.8598 5.08916 65.8598 6.65088C65.8598 8.07598 65.0803 9.59752 62.8864 9.59752ZM58.1985 12.2227H63.2078C64.8097 12.2227 66.717 12.7343 66.717 15.1693C66.717 16.9802 65.4044 18.1963 63.4489 18.1963H58.1985V12.2227Z" fill="black" fill-opacity="0.9"/>
<path d="M78.8785 1.15942H77.1909V19.2678C77.1909 20.3742 77.8124 21.0358 78.8518 21.0358H80.5394V2.82026C80.5394 1.82644 79.8724 1.15942 78.8785 1.15942Z" fill="black" fill-opacity="0.9"/>
<path d="M107.825 10.3475H97.2279V11.7136C97.2279 12.753 97.8333 13.3477 98.8887 13.3477H104.53C104.222 16.4041 101.452 18.5632 97.8734 18.5177C94.0401 18.4427 91.0399 15.1933 91.0399 11.1243C91.0399 7.03117 94.1393 3.70415 97.9511 3.70415C99.6629 3.70415 101.243 4.32295 102.526 5.49357C103.322 6.17129 103.973 6.27041 104.769 5.82841L106.212 5.00335L106.121 4.88281C104.147 2.27905 101.168 0.784302 97.9511 0.784302C92.3097 0.784302 87.7183 5.42391 87.7183 11.1243C87.7183 16.9078 92.2132 21.4375 97.9511 21.4375C103.601 21.4375 107.688 17.6176 107.889 12.1476V12.1422C107.889 11.7297 107.889 11.0386 107.836 10.468L107.825 10.3475Z" fill="black" fill-opacity="0.9"/>
<path d="M116.488 1.15942H114.8V19.2678C114.8 20.3742 115.422 21.0358 116.461 21.0358H118.149V2.82026C118.149 1.82644 117.482 1.15942 116.488 1.15942Z" fill="black" fill-opacity="0.9"/>
<path d="M126.212 21.0385H127.9C128.909 21.0385 129.56 20.3876 129.56 19.3777V12.8415H136.713C137.752 12.8415 138.347 12.2468 138.347 11.2075V10.0288H129.56V4.0016H138.454C139.493 4.0016 140.088 3.41495 140.088 2.39434V1.16211H126.212V21.0385Z" fill="black" fill-opacity="0.9"/>
<path d="M145.687 1.15942C144.677 1.15942 144.026 1.81037 144.026 2.82026V3.99891H149.812V21.0358H151.5C152.493 21.0358 153.16 20.3688 153.16 19.375V3.99891H157.339C158.317 3.99891 159 3.31583 159 2.33808V1.15942H145.687Z" fill="black" fill-opacity="0.9"/>
</svg>
