<svg width="17" height="17" viewBox="0 0 17 17" fill="none" xmlns="http://www.w3.org/2000/svg">
<g clip-path="url(#clip0_1_112)">
<path fill-rule="evenodd" clip-rule="evenodd" d="M4.11454 1.09838C5.35432 0.602465 7.01562 0.3125 8.8125 0.3125C10.6094 0.3125 12.2707 0.602465 13.5105 1.09838C14.1283 1.3455 14.6786 1.65852 15.0867 2.04447C15.4964 2.43192 15.8125 2.94465 15.8125 3.5625V8.3125V13.0625C15.8125 13.6804 15.4964 14.1931 15.0867 14.5805C14.6786 14.9665 14.1283 15.2795 13.5105 15.5266C12.2707 16.0225 10.6094 16.3125 8.8125 16.3125C7.01562 16.3125 5.35432 16.0225 4.11454 15.5266C3.49673 15.2795 2.94644 14.9665 2.53833 14.5805C2.12863 14.1931 1.8125 13.6804 1.8125 13.0625V8.3125V3.5625C1.8125 2.94465 2.12863 2.43192 2.53833 2.04447C2.94644 1.65852 3.49673 1.3455 4.11454 1.09838ZM3.3125 5.64331V8.3125C3.3125 8.385 3.34615 8.52995 3.56899 8.7407C3.79341 8.95294 4.15841 9.17862 4.67163 9.38391C5.6939 9.79282 7.1576 10.0625 8.8125 10.0625C10.4674 10.0625 11.9311 9.79282 12.9534 9.38391C13.4666 9.17862 13.8316 8.95294 14.056 8.7407C14.2789 8.52995 14.3125 8.385 14.3125 8.3125V5.64331C14.0643 5.78547 13.7945 5.91301 13.5105 6.02662C12.2707 6.52254 10.6094 6.8125 8.8125 6.8125C7.01562 6.8125 5.35432 6.52254 4.11454 6.02662C3.8305 5.91301 3.56074 5.78547 3.3125 5.64331ZM14.3125 3.5625C14.3125 3.635 14.2789 3.77996 14.056 3.9907C13.8316 4.20294 13.4666 4.42862 12.9534 4.63391C11.9311 5.04282 10.4674 5.3125 8.8125 5.3125C7.1576 5.3125 5.6939 5.04282 4.67163 4.63391C4.15841 4.42862 3.79341 4.20294 3.56899 3.9907C3.34615 3.77996 3.3125 3.635 3.3125 3.5625C3.3125 3.49 3.34615 3.34504 3.56899 3.1343C3.79341 2.92206 4.15841 2.69638 4.67163 2.49109C5.6939 2.08218 7.1576 1.8125 8.8125 1.8125C10.4674 1.8125 11.9311 2.08218 12.9534 2.49109C13.4666 2.69638 13.8316 2.92206 14.056 3.1343C14.2789 3.34504 14.3125 3.49 14.3125 3.5625ZM14.3125 10.3933C14.0643 10.5355 13.7945 10.663 13.5105 10.7766C12.2707 11.2725 10.6094 11.5625 8.8125 11.5625C7.01562 11.5625 5.35432 11.2725 4.11454 10.7766C3.8305 10.663 3.56074 10.5355 3.3125 10.3933V13.0625C3.3125 13.135 3.34615 13.28 3.56899 13.4907C3.79341 13.7029 4.15841 13.9286 4.67163 14.1339C5.6939 14.5428 7.1576 14.8125 8.8125 14.8125C10.4674 14.8125 11.9311 14.5428 12.9534 14.1339C13.4666 13.9286 13.8316 13.7029 14.056 13.4907C14.2789 13.28 14.3125 13.135 14.3125 13.0625V10.3933Z" fill="#666666"/>
</g>
<defs>
<clipPath id="clip0_1_112">
<rect width="16" height="16" fill="white" transform="translate(0.8125 0.3125)"/>
</clipPath>
</defs>
</svg>
