<svg width="17" height="17" viewBox="0 0 17 17" fill="none" xmlns="http://www.w3.org/2000/svg">
<g clip-path="url(#clip0_1_47)">
<path fill-rule="evenodd" clip-rule="evenodd" d="M2.65625 3.5625C2.65625 1.76757 4.11132 0.3125 5.90625 0.3125H6.40625C8.20118 0.3125 9.65625 1.76757 9.65625 3.5625V4.0625C9.65625 5.85743 8.20118 7.3125 6.40625 7.3125H5.90625C4.11132 7.3125 2.65625 5.85743 2.65625 4.0625V3.5625ZM5.90625 1.8125C4.93975 1.8125 4.15625 2.596 4.15625 3.5625V4.0625C4.15625 5.029 4.93975 5.8125 5.90625 5.8125H6.40625C7.37275 5.8125 8.15625 5.029 8.15625 4.0625V3.5625C8.15625 2.596 7.37275 1.8125 6.40625 1.8125H5.90625ZM1.65625 14.8125V13.4834C2.47583 11.8502 4.14933 10.8125 5.9857 10.8125H6.3268C8.16317 10.8125 9.83667 11.8502 10.6562 13.4834V14.8125H1.65625ZM5.9857 9.3125C3.51108 9.3125 1.26229 10.7513 0.225281 12.9982L0.15625 13.1478V13.3125V15.5625V16.3125H0.90625H11.4062H12.1562V15.5625V13.3125V13.1478L12.0872 12.9982C11.0503 10.7513 8.80142 9.3125 6.3268 9.3125H5.9857ZM16.0872 12.9982C15.5268 11.784 14.6123 10.8056 13.5001 10.1631L12.7498 11.4619C13.5553 11.9273 14.2243 12.6226 14.6562 13.4834V14.8125H13.6562V16.3125H15.4062H16.1562V15.5625V13.3125V13.1477L16.0872 12.9982ZM11.4062 0.3125H10.6562V1.8125H11.4062C12.3728 1.8125 13.1562 2.596 13.1562 3.5625V4.0625C13.1562 5.029 12.3728 5.8125 11.4062 5.8125H10.6562V7.3125H11.4062C13.2011 7.3125 14.6562 5.85743 14.6562 4.0625V3.5625C14.6562 1.76757 13.2011 0.3125 11.4062 0.3125Z" fill="#666666"/>
</g>
<defs>
<clipPath id="clip0_1_47">
<rect width="16" height="16" fill="white" transform="translate(0.15625 0.3125)"/>
</clipPath>
</defs>
</svg>
